<svg id="Layer_1" height="512" viewBox="0 0 128 128" width="512" xmlns="http://www.w3.org/2000/svg" data-name="Layer 1"><path d="m64 112-44.833-53.795h89.666z" fill="#fd9025"/><path d="m49.056 58.205 14.944 53.795 14.944-53.795z" fill="#fed943"/><path d="m84.813 64.962h6.316v6.316h-6.316z" fill="#fdf4cc" transform="matrix(.707 -.707 .707 .707 -22.402 82.158)"/><path d="m60.842 64.962h6.316v6.316h-6.316z" fill="#fdf4cc" transform="matrix(.707 -.707 .707 .707 -29.423 65.208)"/><path d="m36.871 64.962h6.316v6.316h-6.316z" fill="#fdf4cc" transform="matrix(.707 -.707 .707 .707 -36.444 48.257)"/><path d="m108.833 58.205h-89.666l14.944-18.469h59.778z" fill="#fed943"/><path d="m64 39.736-14.944 18.469h29.888z" fill="#fbbe2c"/><path d="m34.111 39.736-14.944 18.469h29.889z" fill="#fbbe2c"/><path d="m93.889 39.736-14.945 18.469h29.889z" fill="#fbbe2c"/><g fill="#fed943"><path d="m64 14.25a1.749 1.749 0 0 0 -1.75 1.75v12.985a1.75 1.75 0 0 0 3.5 0v-12.985a1.749 1.749 0 0 0 -1.75-1.75z"/><path d="m40.495 18.646a1.75 1.75 0 1 0 -2.474 2.475l9.179 9.179a1.75 1.75 0 1 0 2.475-2.475z"/><path d="m89.979 18.646a1.751 1.751 0 0 0 -2.475 0l-9.182 9.182a1.75 1.75 0 0 0 2.478 2.472l9.182-9.182a1.751 1.751 0 0 0 -.003-2.472z"/></g></svg>